# xmcd
#
# Track frame offsets:
#	150
#	17167
#	29775
#	47852
#	64222
#	81900
#	98307
#	113282
#	126137
#	141802
#	159187
#	175375
#	191557
#	204227
#	219542
#	237327
#	253825
#	265917
#	283165
#	296080
#
# Disc length: 4245 seconds
#
# Revision: 4
# Processed by: cddbd v1.5.1PL0 Copyright (c) Steve Scherf et al.
# Submitted via: audiograbber 1.83.01
#
DISCID=27109314
DTITLE=Various Artist - RC21
DYEAR=1993
DGENRE=Country
TTITLE0=Alan Jackson - Mercury Blues
TTITLE1=John Anderson - I Fell In The Water
TTITLE2=Trisha Yearwood - The Song Remembers When
TTITLE3=Garth Brooks - American Honky Tonk Bar Association
TTITLE4=Lee Roy Parnell - On The Road
TTITLE5=Lorrie Morgan - Half Enough
TTITLE6=Collin Raye - That Was A River
TTITLE7=Tracy Lawrence - My Second Home
TTITLE8=Sammy Kershaw - Queen Of My Double Wide Trailer
TTITLE9=Pam Tillis - Do You Know Where Your Man Is
TTITLE10=Little Texas - God Blessed Texas
TTITLE11=Tanya Tucker - Soon
TTITLE12=Diamond Rio - This Romeo Ain't Found Julie Yet
TTITLE13=Sawyer Brown - The Boys And Me
TTITLE14=Wynonna - Is It Over Yet
TTITLE15=Doug Supernaw - I Don't Call Him Daddy
TTITLE16=Martina McBride - My Baby Loves Me
TTITLE17=Billy Ray Cyrus - Somebody New
TTITLE18=Faith Hill - Wild One
TTITLE19=Dwight Yoakam - Fast As You
EXTD=
EXTT0=
EXTT1=
EXTT2=
EXTT3=
EXTT4=
EXTT5=
EXTT6=
EXTT7=
EXTT8=
EXTT9=
EXTT10=
EXTT11=
EXTT12=
EXTT13=
EXTT14=
EXTT15=
EXTT16=
EXTT17=
EXTT18=
EXTT19=
PLAYORDER=
